<?xml version="1.0" encoding="UTF-8"?>
<svg width="30px" height="30px" viewBox="0 0 30 30" version="1.1" xmlns="http://www.w3.org/2000/svg" xmlns:xlink="http://www.w3.org/1999/xlink">
    <title>grommet-icons:google copy</title>
    <g id="Sign-up-" stroke="none" stroke-width="1" fill="none" fill-rule="evenodd">
        <g id="Sign-up---Default-state" transform="translate(-315, -361)" fill-rule="nonzero">
            <g id="Group-3" transform="translate(0, 211)">
                <g id="Group-4" transform="translate(314.9999, 40)">
                    <g id="grommet-icons:google-copy" transform="translate(0, 110)">
                        <g id="Icon">
                            <path d="M6.58264557,12.20625 C7.78230107,8.57676221 11.1775426,6.12839675 15.0001456,6.13625 C17.1126456,6.13625 19.0226456,6.88625 20.5226456,8.11375 L24.8876456,3.75 C22.2276456,1.43125 18.8188956,0 15.0001456,0 C9.08764557,0 3.99764557,3.3725 1.55014557,8.3125 L6.58264557,12.20625 Z" id="Icon-Path" fill="#EA4335"></path>
                            <path d="M20.0501456,22.51625 C18.6876456,23.395 16.9576456,23.86375 15.0001456,23.86375 C11.1935531,23.871569 7.80877662,21.4433708 6.59639557,17.835 L1.54639557,21.66875 C4.0742471,26.7851505 9.2933693,30.0170979 15.0001456,30.0000675 C18.6663956,30.0000675 22.1688956,28.69625 24.7926456,26.25 L20.0513956,22.51625 L20.0501456,22.51625 Z" id="Icon-Path" fill="#34A853"></path>
                            <path d="M24.7926456,26.25 C27.5363956,23.69 29.3176456,19.88 29.3176456,15 C29.3176456,14.1125 29.1813956,13.15875 28.9776456,12.2725 L15.0001456,12.2725 L15.0001456,18.06875 L23.0451456,18.06875 C22.6488956,20.0175 21.5826456,21.52625 20.0513956,22.51625 L24.7926456,26.25 Z" id="Icon-Path" fill="#4A90E2"></path>
                            <path d="M6.59639557,17.835 C6.29058964,16.921136 6.1352339,15.9636718 6.13639557,15 C6.13639557,14.0225 6.29264557,13.08375 6.58264557,12.20625 L1.55014557,8.3125 C0.520617909,10.3908576 -0.0100999302,12.6806483 0.000145568188,15 C0.000145568188,17.4 0.556395568,19.6625 1.54639557,21.66875 L6.59639557,17.835 L6.59639557,17.835 Z" id="Icon-Path" fill="#FBBC05"></path>
                        </g>
                        <rect id="ViewBox" x="0.000145568188" y="0" width="30" height="30"></rect>
                    </g>
                </g>
            </g>
        </g>
    </g>
</svg>